HIERARCHY
ROOT hip
{
	OFFSET 0.000000 0.000000 0.000000 
	CHANNELS 6 Xposition Yposition Zposition Zrotation Xrotation Yrotation
	JOINT abdomen
	{
		OFFSET 0.000000 3.402643 0.000000 
		CHANNELS 3 Zrotation Xrotation Yrotation
		JOINT chest
		{
			OFFSET 0.000000 8.438565 -0.680529 
			CHANNELS 3 Zrotation Xrotation Yrotation
			JOINT neck
			{
				OFFSET 0.000000 10.207942 -0.272212 
				CHANNELS 3 Zrotation Xrotation Yrotation
				JOINT head
				{
					OFFSET 0.000000 3.130431 0.000000 
					CHANNELS 3 Zrotation Xrotation Yrotation
					End Site
					{
						OFFSET 0.000000 3.130435 0.000000 
					}
				}
			}
			JOINT lCollar
			{
				OFFSET 3.470700 6.669187 -0.816635 
				CHANNELS 3 Zrotation Xrotation Yrotation
				JOINT lShldr
				{
					OFFSET 3.198488 0.000000 0.000000 
					CHANNELS 3 Zrotation Xrotation Yrotation
					JOINT lForeArm
					{
						OFFSET 10.139888 0.000000 0.000000 
						CHANNELS 3 Zrotation Xrotation Yrotation
						JOINT lHand
						{
							OFFSET 8.370511 0.000000 0.000000 
							CHANNELS 3 Zrotation Xrotation Yrotation
							End Site
							{
								OFFSET 4.083176 0.000000 0.000000 
							}
						}
					}
				}
			}
			JOINT rCollar
			{
				OFFSET -3.470700 6.669187 -0.816635 
				CHANNELS 3 Zrotation Xrotation Yrotation
				JOINT rShldr
				{
					OFFSET -3.198488 0.000000 0.000000 
					CHANNELS 3 Zrotation Xrotation Yrotation
					JOINT rForeArm
					{
						OFFSET -10.139888 0.000000 0.000000 
						CHANNELS 3 Zrotation Xrotation Yrotation
						JOINT rHand
						{
							OFFSET -8.370511 0.000000 0.000000 
							CHANNELS 3 Zrotation Xrotation Yrotation
							End Site
							{
								OFFSET -4.083176 0.000000 0.000000 
							}
						}
					}
				}
			}
		}
	}
	JOINT lThigh
	{
		OFFSET 5.308129 -1.633274 1.361059 
		CHANNELS 3 Zrotation Xrotation Yrotation
		JOINT lShin
		{
			OFFSET -2.041588 -20.007561 0.000000 
			CHANNELS 3 Zrotation Xrotation Yrotation
			JOINT lFoot
			{
				OFFSET 0.000000 -19.190928 -1.224953 
				CHANNELS 3 Zrotation Xrotation Yrotation
				End Site
				{
					OFFSET 0.000000 -2.449906 4.627600 
				}
			}
		}
	}
	JOINT rThigh
	{
		OFFSET -5.308129 -1.633274 1.361059 
		CHANNELS 3 Zrotation Xrotation Yrotation
		JOINT rShin
		{
			OFFSET 2.041588 -20.007561 0.000000 
			CHANNELS 3 Zrotation Xrotation Yrotation
			JOINT rFoot
			{
				OFFSET 0.000000 -19.190928 -1.224953 
				CHANNELS 3 Zrotation Xrotation Yrotation
				End Site
				{
					OFFSET 0.000000 -2.449906 4.627600 
				}
			}
		}
	}
}
MOTION
Frames: 14
Frame Time: 0.033333
5.055933 46.373528 2.844306 0.872082 4.706484 -11.340942 -1.880549 4.401934 -2.863423 -3.687005 -3.089306 -5.091554 0.488660 2.255773 -0.155953 2.458519 -4.429527 15.805646 -11.913368 0.218913 3.038861 -61.483665 -20.381836 9.349899 -14.766662 3.094046 -45.125370 2.014114 -28.431648 -8.862147 5.319664 9.900536 -2.568154 74.345901 -3.882164 17.473015 4.169374 14.969971 52.176620 -6.899459 -3.142466 6.011000 3.325779 -27.483379 -12.190160 -6.373548 33.644810 -0.581145 -2.551158 -13.258547 29.465965 -3.441115 -22.296556 9.139576 -0.138740 35.451557 1.443179 5.713772 -15.965115 -11.809647 
6.446417 43.499615 8.358640 -0.039482 8.349607 -22.689579 -2.240798 6.459945 -3.390342 -4.517326 -2.852454 -7.383472 0.127430 4.960924 -0.128186 4.233123 -6.116211 34.261147 -17.866112 -0.326561 10.670287 -46.714062 -63.978409 12.206315 -20.843750 19.120060 -89.802490 -5.137628 -41.450829 -9.770886 5.160719 9.837687 -4.457054 79.136620 -6.768657 23.582411 9.866254 19.981083 91.007484 -11.705769 -7.033150 7.406440 14.813998 -42.257664 -5.337176 -9.044115 48.272381 0.561678 -8.125421 -16.555571 35.484173 -5.755910 -27.202927 9.315945 3.060342 49.707245 0.591737 9.098406 -28.293350 -8.887454 
7.393781 41.304333 12.656929 -0.776640 11.248993 -32.514629 -1.715411 7.877372 2.119648 -3.931904 -3.195598 -4.019024 0.049206 7.109370 -0.152574 4.822774 -7.152585 44.010490 -19.673773 -1.466042 12.381441 83.217133 -85.754204 133.895416 -13.938159 39.055805 -123.459297 -13.147403 -54.441860 -11.750759 5.313733 9.762221 -6.067669 84.813698 -10.636420 29.760557 6.518787 32.499462 120.242348 -12.474564 -11.171671 5.838991 33.003647 -48.287827 9.323895 -11.267594 55.862804 2.576095 -13.507576 -16.526049 35.242664 -8.637093 -28.848141 9.164546 6.337646 55.596447 -2.131045 14.229478 -33.914192 -5.181237 
7.517857 40.510559 14.432018 -1.110548 12.556294 -38.840572 0.167643 7.988246 16.871237 -1.048044 -4.423090 9.030494 0.424138 8.085711 -0.303727 3.404664 -7.048210 37.127232 -14.731791 -2.338600 4.231884 84.816185 -85.914375 129.072861 -12.749705 51.100414 -133.185730 -9.137697 -28.862421 -13.130472 5.969811 9.622859 -7.018577 91.260727 -15.812941 35.641617 1.244803 37.783398 131.355377 -7.134824 -15.358479 -0.792372 37.995365 -46.961128 14.484783 -14.813227 63.296623 5.452043 -12.412538 -23.383667 36.473076 -9.946535 -29.433935 8.908096 7.725711 56.376442 -3.643550 17.304953 -34.234650 -0.769250 
7.507885 40.447685 14.982627 -1.212514 12.956156 -42.560139 1.349012 7.361263 29.856426 1.627802 -5.202988 25.040510 0.681114 8.388085 -0.411864 1.927561 -6.783306 21.692604 -10.298871 -5.021619 -6.561759 -6.912598 -75.115517 31.242558 -25.377672 56.431538 -125.076553 4.294093 10.324883 -18.191454 6.783193 9.462020 -7.549279 97.395279 -20.453934 41.294018 0.062843 38.653976 131.020279 -0.789625 -18.856010 -8.310908 39.227516 -45.141163 15.136136 -16.073269 64.860718 6.686516 -12.321609 -26.065748 38.518539 -10.257923 -29.833712 8.738076 8.024669 55.772903 -3.996442 18.336779 -33.115250 2.820131 
7.867943 40.294453 15.676711 -1.304458 13.287688 -45.022404 0.098399 7.050772 30.300409 1.381379 -4.588513 36.712337 0.316089 8.642446 -0.281820 2.818634 -7.734882 9.364507 -10.284679 -6.775228 -11.185964 -5.806460 -58.745457 25.161676 -39.892071 50.078594 -111.293083 4.294093 10.324883 -18.191454 7.509978 9.314936 -8.029274 101.771477 -22.977058 45.853088 -1.821387 39.584278 131.020187 2.775423 -21.719946 -11.103625 39.501411 -44.558807 15.620634 -17.724321 66.824379 8.020186 -11.519470 -28.300426 40.290340 -11.402705 -30.147825 9.218878 9.484513 55.599468 -5.580318 20.020103 -32.578655 5.658879 
7.294869 40.021721 15.553780 -1.376324 13.580195 -46.592171 -1.710058 8.902347 22.998798 -2.008092 -4.479677 43.739563 -0.138373 8.867157 -0.115390 7.673522 -11.093687 11.836615 -6.211799 -9.178574 -13.196803 -19.831606 -53.736092 -9.738329 -46.443993 18.280405 -77.632256 4.294093 10.324883 -18.191454 8.745394 9.047713 -8.582651 105.153229 -23.609901 46.806023 -6.965257 41.529289 131.485489 5.560113 -25.512262 -6.418977 41.740742 -43.593361 16.532013 -19.316938 67.913307 9.661483 -12.725023 -29.503708 39.870121 -11.001057 -30.610384 7.888241 8.822444 56.431751 -4.856900 20.530369 -32.997688 7.799833 
6.662847 39.793835 15.746423 -1.407157 13.687424 -47.967743 -2.978901 12.327579 3.721987 -3.927171 -4.316049 41.841991 -0.148292 8.955043 -0.113636 13.056479 -14.104099 36.771755 7.708390 -14.101783 -15.444612 2.405754 -39.576126 -0.975595 -39.488873 -8.347832 -49.395588 4.294093 10.324883 -18.191454 10.073290 8.738852 -9.086040 106.679062 -18.641960 47.338493 -10.755953 43.875015 124.946739 10.307508 -29.742931 7.774339 42.501759 -42.281616 16.319227 -20.101809 68.813194 10.302464 -13.656067 -31.276812 40.116581 -10.466323 -30.411495 7.641860 9.056760 57.034153 -5.045717 20.868643 -33.934334 9.845053 
11.379677 39.688812 21.454597 -1.366669 13.638845 -48.047043 -5.885556 10.784041 -47.303223 6.444120 2.950024 34.863350 -0.138351 8.808565 -0.115556 5.829745 -8.093253 63.812798 18.385187 -12.036672 -13.810948 -1.626452 -21.561693 -0.546024 -7.422510 -23.174541 -3.529142 4.294093 10.324883 -18.191454 8.146878 9.117844 -8.930671 93.260452 -7.743785 59.529045 0.503148 40.200378 101.652054 11.796760 -30.062012 21.316202 27.851730 -45.594269 11.078041 -24.700127 73.165886 14.675459 0.527037 -36.063427 50.418179 -21.146095 -23.281923 7.325384 6.431250 43.148613 -3.543745 29.165478 -25.483738 10.476851 
11.255635 39.620575 20.739635 -1.294530 13.307257 -37.251011 -5.039202 10.098348 -62.532188 9.640055 6.364677 11.042032 -0.108633 8.564431 -0.120541 3.235568 -6.786133 87.013603 6.836982 -8.931060 -21.894806 -0.809151 -7.997320 -21.172709 -13.859355 -56.296551 -24.079659 4.294093 10.324883 -18.191454 5.672814 9.527908 -8.780658 72.760490 -19.469379 53.282703 5.021417 33.374962 101.714844 4.248880 -30.809767 4.931970 25.049654 -49.864635 8.683443 -21.873466 71.506134 11.825577 -0.469302 -32.172882 42.270035 -20.078480 -21.342840 8.449902 7.383654 48.014194 -4.080736 24.948416 -30.834072 -1.496239 
10.373787 39.611244 19.221931 -1.263264 13.082862 -29.440775 -4.419772 9.776098 -65.097694 9.180236 5.919843 -6.706873 -0.088846 8.408186 17.581356 3.071091 -7.196788 80.082893 -1.914683 -5.572934 -25.861544 -1.745196 1.889731 -37.846470 -63.424385 -49.452061 -82.285530 4.287540 10.355328 -18.195242 4.098724 9.678976 -8.799010 59.284912 -28.319675 44.974060 8.184855 29.702259 109.222679 -3.382569 -28.824459 -14.246088 25.713844 -52.836830 8.916395 -19.835409 69.564590 10.068258 -3.050744 -28.034107 34.343441 -17.143391 -21.256548 9.069636 8.222519 52.624348 -4.582691 20.245773 -34.302841 -11.971786 
10.288674 39.657101 18.847990 -1.252792 12.995038 -26.310045 -4.928654 9.331214 -66.250015 8.180808 3.653947 -13.649922 -0.078964 8.349601 41.027088 3.161128 -7.400958 56.579994 -4.153528 -5.061612 -24.288551 -8.567212 9.464048 -46.991753 -59.886074 -26.523983 -91.288330 4.274728 10.380491 -18.219057 3.139819 9.694090 -8.894045 56.386341 -25.565184 38.094913 10.941507 28.122620 114.915802 -6.641636 -26.436192 -23.580299 24.539404 -53.913830 8.112394 -18.814219 68.611130 8.998627 -3.156171 -26.450716 32.154930 -16.424339 -20.778685 9.033041 8.059506 53.487297 -4.340231 19.006712 -35.120190 -16.526228 
10.532792 39.737022 18.972235 -1.252498 12.936451 -24.387526 -5.823381 8.967915 -65.700508 7.335235 1.055749 -11.804572 -0.078956 8.320301 49.005550 3.181602 -7.508074 41.949337 -3.040088 -6.392304 -20.660446 -14.939126 17.565058 -51.638714 -43.138638 -13.243167 -98.640808 4.294093 10.324883 -18.191454 2.268554 9.709639 -8.926985 59.966305 -18.993788 34.786243 12.844034 25.742317 115.769409 -4.621960 -26.193777 -19.707010 22.313726 -54.602634 6.388922 -18.800270 68.399147 9.066165 -2.412758 -26.027367 31.538477 -16.511534 -19.758192 8.801373 7.632555 52.859379 -3.865613 18.835186 -35.137157 -18.771452 
10.707136 39.833294 19.059439 -1.231977 12.838932 -21.415855 -6.434190 8.841338 -63.041279 6.992664 -0.668817 -3.853515 -0.078945 8.261710 28.575785 2.965710 -7.626613 53.050690 -1.178728 -7.827359 -17.419291 -16.122177 26.565228 -54.391262 -29.810049 -12.626244 -106.998512 4.289934 10.177943 -18.116796 1.194279 9.816086 -8.791682 63.243389 -16.065952 34.409798 13.181702 21.128170 110.701706 3.010729 -26.781981 -1.776061 20.243935 -55.210030 5.108437 -18.354792 67.903397 8.794526 -2.090594 -25.342098 29.348249 -16.310495 -18.292458 9.110279 7.487256 52.301067 -3.792435 18.169918 -35.255424 -21.677710 
